<svg viewBox="0 0 320 180" xmlns="http://www.w3.org/2000/svg" role="img" aria-label="Designing with AI course illustration">
  <rect width="320" height="180" fill="#DCEEFB"/>
  <g stroke="#1B2432" stroke-width="4" stroke-linejoin="round" stroke-linecap="round">
    <!-- monitor -->
    <rect x="78" y="46" width="164" height="98" rx="12" fill="#FFFFFF"/>
    <!-- screen canvas -->
    <rect x="92" y="60" width="60" height="70" rx="6" fill="#FFF1C2"/>
    <rect x="164" y="60" width="66" height="20" rx="5" fill="#1E9BE9"/>
    <rect x="164" y="88" width="66" height="10" rx="5" fill="#DCEEFB"/>
    <rect x="164" y="104" width="46" height="10" rx="5" fill="#DCEEFB"/>
    <!-- stand -->
    <path d="M150 144 l-8 20 h36 l-8 -20" fill="#FFFFFF"/>
    <line x1="128" y1="164" x2="192" y2="164"/>
    <!-- cursor -->
    <path d="M196 118 l26 10 -10 3 -3 12 z" fill="#FFCB2E"/>
  </g>
  <!-- sparkles -->
  <g fill="#FFCB2E" stroke="#1B2432" stroke-width="3" stroke-linejoin="round">
    <path d="M60 40 l6 14 14 6 -14 6 -6 14 -6 -14 -14 -6 14 -6 z"/>
  </g>
  <g fill="#FF7A59" stroke="#1B2432" stroke-width="2.5" stroke-linejoin="round">
    <path d="M262 30 l4 9 9 4 -9 4 -4 9 -4 -9 -9 -4 9 -4 z"/>
  </g>
  <circle cx="270" cy="120" r="5" fill="#8A6FE8" stroke="#1B2432" stroke-width="2.5"/>
</svg>
